<?xml version="1.0" encoding="utf-8"?>
<!-- Generator: Adobe Illustrator 18.0.0, SVG Export Plug-In . SVG Version: 6.00 Build 0)  -->
<!DOCTYPE svg PUBLIC "-//W3C//DTD SVG 1.1//EN" "http://www.w3.org/Graphics/SVG/1.1/DTD/svg11.dtd">
<svg version="1.1" id="Layer_1" xmlns="http://www.w3.org/2000/svg" xmlns:xlink="http://www.w3.org/1999/xlink" x="0px" y="0px"
	 viewBox="1035.5 0.4 53 35" enable-background="new 1035.5 0.4 53 35" xml:space="preserve">
<g id="Amex_1_">
	<path id="Background_9_" fill="#5EC1EC" d="M1088.5,31c0,2.4-2,4.4-4.4,4.4h-44.2c-2.4,0-4.4-2-4.4-4.4V4.7c0-2.4,2-4.4,4.4-4.4
		h44.2c2.4,0,4.4,2,4.4,4.4V31z"/>
	<path id="Glare_8_" fill="#5BBBE6" d="M1087.2,1.6c0.8,0.8,1.3,1.9,1.3,3.1v13.1V31c0,1.2-0.5,2.3-1.3,3.1s-1.9,1.3-3.1,1.3H1062
		h-22.1c-1.2,0-2.3-0.5-3.1-1.3L1087.2,1.6z"/>
	<g id="Amex_Logo_1_">
		<path fill="#FFFFFF" d="M1051,22.2l-0.4-1.5h-2.7l-0.4,1.5h-2.4l2.7-8.2h3l2.7,8.2H1051z M1049.2,15.4l-0.9,3.5l1.7,0L1049.2,15.4
			z"/>
		<path fill="#FFFFFF" d="M1061.7,16.3l-1.7,5.8h-2.1v0l-1.7-5.8l0.1,5.8h-2V14h2.9l1.7,5.8h0l1.7-5.8h3v8.1h-2L1061.7,16.3z"/>
		<path fill="#FFFFFF" d="M1070,22.2h-4.9V14h4.9v1.8h-2.7v1.3h2.5v1.8h-2.5v1.5h2.7V22.2z"/>
		<path fill="#FFFFFF" d="M1078.8,22.2h-2.6l-1.6-2.5l-1.6,2.5h-2.5l2.7-4.2l-2.6-4h2.5l1.5,2.5l1.4-2.5h2.5l-2.6,4.1L1078.8,22.2z"
			/>
	</g>
	<g id="Border_5_">
		<path fill="#9BCEE0" d="M1084.1,1.2c1.9,0,3.5,1.6,3.5,3.5V31c0,1.9-1.6,3.5-3.5,3.5h-44.2c-1.9,0-3.5-1.6-3.5-3.5V4.7
			c0-1.9,1.6-3.5,3.5-3.5H1084.1 M1084.1,0.4h-44.2c-2.4,0-4.4,2-4.4,4.4V31c0,2.4,2,4.4,4.4,4.4h44.2c2.4,0,4.4-2,4.4-4.4V4.7
			C1088.5,2.3,1086.5,0.4,1084.1,0.4L1084.1,0.4z"/>
	</g>
</g>
</svg>
