<?xml version="1.0" encoding="utf-8"?>
<!-- Generator: Adobe Illustrator 18.0.0, SVG Export Plug-In . SVG Version: 6.00 Build 0)  -->
<!DOCTYPE svg PUBLIC "-//W3C//DTD SVG 1.1//EN" "http://www.w3.org/Graphics/SVG/1.1/DTD/svg11.dtd">
<svg version="1.1" id="Layer_1" xmlns="http://www.w3.org/2000/svg" xmlns:xlink="http://www.w3.org/1999/xlink" x="0px" y="0px"
	 viewBox="899.2 73.4 53 35" enable-background="new 899.2 73.4 53 35" xml:space="preserve">
<g>
	<path fill="#F3F4F4" d="M952.2,104c0,2.4-2,4.4-4.4,4.4h-44.2c-2.4,0-4.4-2-4.4-4.4V77.8c0-2.4,2-4.4,4.4-4.4h44.2
		c2.4,0,4.4,2,4.4,4.4V104z"/>
	<g>
		<g>
			<ellipse fill="#009FDA" cx="922.9" cy="90.9" rx="8.8" ry="8.8"/>
			<path fill="#009FDA" d="M922.1,82.2c4.4,0,8.8,3.9,8.8,8.8c0,4.8-4.4,8.8-8.8,8.8V82.2z"/>
			<path fill="#009FDA" d="M922.1,99.7V82.2h6.3c4.4,0,8.8,3.9,8.8,8.8c0,4.8-4.4,8.8-8.8,8.8H922.1z"/>
			<ellipse fill="#F3F4F4" cx="922.9" cy="90.9" rx="8.3" ry="8.3"/>
			<g>
				<path fill="#009FDA" d="M926.9,90.9c0-2.4-2.2-4.4-3.9-4.9v9.8C924.8,95.3,926.9,93.3,926.9,90.9z"/>
			</g>
			<g>
				<path fill="#009FDA" d="M916.5,90.9c0,2.4,2.2,4.4,3.9,4.9V86C918.6,86.5,916.5,88.5,916.5,90.9z"/>
			</g>
		</g>
		<path opacity="8.000000e-02" fill="#FFFFFF" enable-background="new    " d="M950.9,74.7c0.8,0.8,1.3,1.9,1.3,3.1v13.1V104
			c0,1.2-0.5,2.3-1.3,3.1s-1.9,1.3-3.1,1.3h-22.1h-22.1c-1.2,0-2.3-0.5-3.1-1.3L950.9,74.7z"/>
		<g>
			<path fill="#F8F8F9" d="M947.8,74.3c1.9,0,3.5,1.6,3.5,3.5V104c0,1.9-1.6,3.5-3.5,3.5h-44.2c-1.9,0-3.5-1.6-3.5-3.5V77.8
				c0-1.9,1.6-3.5,3.5-3.5H947.8 M947.8,73.4h-44.2c-2.4,0-4.4,2-4.4,4.4V104c0,2.4,2,4.4,4.4,4.4h44.2c2.4,0,4.4-2,4.4-4.4V77.8
				C952.2,75.4,950.2,73.4,947.8,73.4L947.8,73.4z"/>
		</g>
	</g>
</g>
</svg>
