<?xml version="1.0" encoding="utf-8"?>
<!-- Generator: Adobe Illustrator 18.0.0, SVG Export Plug-In . SVG Version: 6.00 Build 0)  -->
<!DOCTYPE svg PUBLIC "-//W3C//DTD SVG 1.1//EN" "http://www.w3.org/Graphics/SVG/1.1/DTD/svg11.dtd">
<svg version="1.1" id="Layer_1" xmlns="http://www.w3.org/2000/svg" xmlns:xlink="http://www.w3.org/1999/xlink" x="0px" y="0px"
	 viewBox="1103.6 0.4 53 35" enable-background="new 1103.6 0.4 53 35" xml:space="preserve">
<g id="Discover_1_">
	<path id="Background_10_" fill="#FFF9F0" d="M1156.6,31c0,2.4-2,4.4-4.4,4.4H1108c-2.4,0-4.4-2-4.4-4.4V4.7c0-2.4,2-4.4,4.4-4.4
		h44.2c2.4,0,4.4,2,4.4,4.4V31z"/>
	<g id="Discover_logo_1_">
		<path fill="#414042" d="M1115.1,16.8c0,1-0.3,1.8-0.9,2.4c-0.6,0.5-1.4,0.8-2.6,0.8h-1.8v-6.2h2c1,0,1.8,0.3,2.4,0.8
			C1114.8,15.1,1115.1,15.8,1115.1,16.8z M1113.7,16.8c0-1.3-0.6-2-1.8-2h-0.7v4.1h0.6C1113.1,18.9,1113.7,18.2,1113.7,16.8z"/>
		<path fill="#414042" d="M1116.2,20v-6.2h1.3V20H1116.2z"/>
		<path fill="#414042" d="M1122.9,18.2c0,0.6-0.2,1-0.6,1.3c-0.4,0.3-1,0.5-1.7,0.5c-0.7,0-1.3-0.1-1.8-0.4c0,0,0-1.2,0-1.2
			c0.7,0.3,1.5,0.6,2.2,0.5c0.2,0,0.4-0.1,0.5-0.3c0.1-0.2,0.1-0.5-0.1-0.7c-0.3-0.3-0.7-0.4-1-0.6c-0.7-0.3-1.3-0.7-1.4-1.5
			c-0.2-1,0.5-2,1.6-2.2c0.4-0.1,0.8,0,1.2,0.1c0.1,0,1.1,0.3,1.1,0.4c0,0-0.4,1-0.4,1c-0.5-0.2-1-0.4-1.5-0.4
			c-0.3,0-0.6,0.1-0.7,0.4c-0.1,0.3,0,0.6,0.2,0.8c0.2,0.2,0.5,0.3,0.8,0.4c0.5,0.2,1,0.5,1.4,0.9
			C1122.7,17.5,1122.9,17.8,1122.9,18.2z"/>
		<path fill="#414042" d="M1126.7,14.7c-0.5,0-0.9,0.2-1.2,0.6c-0.3,0.4-0.4,0.9-0.4,1.6c0,1.4,0.5,2.1,1.6,2.1c0.4,0,1-0.1,1.6-0.3
			v1.1c-0.5,0.2-1.1,0.3-1.7,0.3c-0.9,0-1.6-0.3-2.1-0.8c-0.7-0.8-0.8-2.1-0.7-3.1c0.1-0.7,0.5-1.4,1-1.8c1-0.9,2.6-0.8,3.8-0.2
			l-0.4,1.1c-0.2-0.1-0.5-0.2-0.7-0.3C1127.1,14.8,1126.9,14.7,1126.7,14.7z"/>
		<path fill="#414042" d="M1139,13.7h1.3l-2.1,6.2h-1.5l-2.1-6.2h1.3l1.5,5.1L1139,13.7z"/>
		<path fill="#414042" d="M1144.7,20h-3.6v-6.2h3.6v1.1h-2.3v1.4h2.1v1.1h-2.1v1.6h2.3V20z"/>
		<path fill="#414042" d="M1147.4,17.6V20h-1.3v-6.2h1.8c0.9,0,1.5,0.2,1.9,0.5c0.4,0.3,0.6,0.8,0.6,1.4c0,0.4-0.1,0.7-0.3,1
			c-0.2,0.3-0.5,0.5-0.9,0.7c0.9,1.4,1.6,2.3,1.8,2.7h-1.5l-1.5-2.4L1147.4,17.6L1147.4,17.6z M1147.4,16.5c0.4,0,1,0.1,1.4-0.2
			c0.2-0.2,0.4-0.5,0.3-0.8c-0.1-0.6-0.8-0.6-1.3-0.6h-0.4C1147.4,14.8,1147.4,16.5,1147.4,16.5z"/>
		<ellipse fill="#E6A124" cx="1131.6" cy="16.8" rx="3.1" ry="3.1"/>
	</g>
	<path id="Orange_corner_1_" fill="#E6A124" d="M1156.6,24.4V31c0,0.6-0.4,1.1-0.6,1.7c-0.2,0.5-0.5,1-0.9,1.4s-0.9,0.7-1.4,0.9
		c-0.5,0.2-0.9,0.4-1.5,0.4h-19.8h-19.8L1156.6,24.4z"/>
	<path id="Glare_9_" opacity="8.000000e-02" fill="#FFFFFF" enable-background="new    " d="M1155.3,1.6c0.8,0.8,1.3,1.9,1.3,3.1
		v13.1V31c0,1.2-0.5,2.3-1.3,3.1s-1.9,1.3-3.1,1.3h-22.1H1108c-1.2,0-2.3-0.5-3.1-1.3L1155.3,1.6z"/>
	<g id="Border_6_">
		<path fill="#F7F5F2" d="M1152.2,1.2c1.9,0,3.5,1.6,3.5,3.5V31c0,1.9-1.6,3.5-3.5,3.5H1108c-1.9,0-3.5-1.6-3.5-3.5V4.7
			c0-1.9,1.6-3.5,3.5-3.5H1152.2 M1152.2,0.4H1108c-2.4,0-4.4,2-4.4,4.4V31c0,2.4,2,4.4,4.4,4.4h44.2c2.4,0,4.4-2,4.4-4.4V4.7
			C1156.6,2.3,1154.6,0.4,1152.2,0.4L1152.2,0.4z"/>
	</g>
</g>
</svg>
