<?xml version="1.0" encoding="utf-8"?>
<!-- Generator: Adobe Illustrator 18.0.0, SVG Export Plug-In . SVG Version: 6.00 Build 0)  -->
<!DOCTYPE svg PUBLIC "-//W3C//DTD SVG 1.1//EN" "http://www.w3.org/Graphics/SVG/1.1/DTD/svg11.dtd">
<svg version="1.1" id="Layer_1" xmlns="http://www.w3.org/2000/svg" xmlns:xlink="http://www.w3.org/1999/xlink" x="0px" y="0px"
	 viewBox="831 73.4 53 35" enable-background="new 831 73.4 53 35" xml:space="preserve">
<g>
	<path fill="#F3F4F4" d="M884,104c0,2.4-2,4.4-4.4,4.4h-44.2c-2.4,0-4.4-2-4.4-4.4V77.8c0-2.4,2-4.4,4.4-4.4h44.2
		c2.4,0,4.4,2,4.4,4.4V104z"/>
	<g>
		<path fill="#FFFFFF" d="M857.5,73.4"/>
		<g>
			<path fill="#5565AF" d="M846.1,99.7H839V86.5c0-2.4,2.9-4.4,5.3-4.4h5.3v13.1C849.6,97.7,848.5,99.7,846.1,99.7z"/>
			<path fill="#EA564B" d="M858.4,99.7h-7.1V86.5c0-2.4,2.9-4.4,5.3-4.4h5.3v13.1C862,97.7,860.9,99.7,858.4,99.7z"/>
			<path fill="#99CD76" d="M870.8,99.7h-7.1V86.5c0-2.4,2.9-4.4,5.3-4.4h5.3v13.1C874.3,97.7,873.2,99.7,870.8,99.7z"/>
		</g>
		<path opacity="8.000000e-02" fill="#FFFFFF" enable-background="new    " d="M882.7,74.7c0.8,0.8,1.3,1.9,1.3,3.1v13.1V104
			c0,1.2-0.5,2.3-1.3,3.1c-0.8,0.8-1.9,1.3-3.1,1.3h-22.1h-22.1c-1.2,0-2.3-0.5-3.1-1.3L882.7,74.7z"/>
		<g>
			<path fill="#F8F8F9" d="M879.6,74.3c1.9,0,3.5,1.6,3.5,3.5V104c0,1.9-1.6,3.5-3.5,3.5h-44.2c-1.9,0-3.5-1.6-3.5-3.5V77.8
				c0-1.9,1.6-3.5,3.5-3.5H879.6 M879.6,73.4h-44.2c-2.4,0-4.4,2-4.4,4.4V104c0,2.4,2,4.4,4.4,4.4h44.2c2.4,0,4.4-2,4.4-4.4V77.8
				C884,75.4,882,73.4,879.6,73.4L879.6,73.4z"/>
		</g>
	</g>
</g>
</svg>
