<?xml version="1.0" encoding="utf-8"?>
<!-- Generator: Adobe Illustrator 18.0.0, SVG Export Plug-In . SVG Version: 6.00 Build 0)  -->
<!DOCTYPE svg PUBLIC "-//W3C//DTD SVG 1.1//EN" "http://www.w3.org/Graphics/SVG/1.1/DTD/svg11.dtd">
<svg version="1.1" id="Layer_1" xmlns="http://www.w3.org/2000/svg" xmlns:xlink="http://www.w3.org/1999/xlink" x="0px" y="0px"
	 viewBox="967.3 0.1 53 35" enable-background="new 967.3 0.1 53 35" xml:space="preserve">
<g id="Mastercard_1_">
	<path id="Background_8_" fill="#5565AF" d="M1020.3,30.8c0,2.4-2,4.4-4.4,4.4h-44.2c-2.4,0-4.4-2-4.4-4.4V4.5c0-2.4,2-4.4,4.4-4.4
		h44.2c2.4,0,4.4,2,4.4,4.4V30.8z"/>
	<g>
		<path fill="#EA564B" d="M993.8,11.9c-1.6-1.8-4-3-6.6-3c-4.9,0-8.8,3.9-8.8,8.8c0,4.8,4,8.8,8.8,8.8c2.6,0,5-1.2,6.6-3
			c-1.4-1.5-2.2-3.6-2.2-5.8S992.5,13.4,993.8,11.9z"/>
		<path fill="#EA564B" d="M993.8,11.9c-1.4,1.5-2.2,3.6-2.2,5.8s0.8,4.2,2.2,5.8c1.4-1.5,2.2-3.6,2.2-5.8S995.2,13.4,993.8,11.9z"/>
	</g>
	<path id="Yellow_Circle_1_" fill="#E9D419" d="M1000.4,8.9c-2.6,0-5,1.2-6.6,3c-0.4,0.4-0.7,0.9-1,1.4h2c0.3,0.5,0.6,1.1,0.8,1.8
		H992c-0.2,0.6-0.3,1.1-0.4,1.8h4.3c0,0.3,0.1,0.6,0.1,0.9c0,0.3,0,0.6,0,0.9h-4.3c0.1,0.6,0.2,1.2,0.4,1.8h3.6
		c-0.2,0.6-0.5,1.2-0.8,1.8h-2c0.3,0.5,0.6,1,1,1.4c1.6,1.8,4,3,6.6,3c4.9,0,8.8-3.9,8.8-8.8C1009.3,12.8,1005.3,8.9,1000.4,8.9z"/>
	<g id="Border_4_">
		<path fill="#7684B7" d="M1015.9,1c1.9,0,3.5,1.6,3.5,3.5v26.2c0,1.9-1.6,3.5-3.5,3.5h-44.2c-1.9,0-3.5-1.6-3.5-3.5V4.5
			c0-1.9,1.6-3.5,3.5-3.5H1015.9 M1015.9,0.1h-44.2c-2.4,0-4.4,2-4.4,4.4v26.2c0,2.4,2,4.4,4.4,4.4h44.2c2.4,0,4.4-2,4.4-4.4V4.5
			C1020.3,2.1,1018.3,0.1,1015.9,0.1L1015.9,0.1z"/>
	</g>
	<path id="Glare_7_" opacity="4.000000e-02" fill="#FFFFFF" enable-background="new    " d="M1019,1.4c0.8,0.8,1.3,1.9,1.3,3.1v13.1
		v13.1c0,1.2-0.5,2.3-1.3,3.1c-0.8,0.8-1.9,1.3-3.1,1.3h-22.1h-22.1c-1.2,0-2.3-0.5-3.1-1.3L1019,1.4z"/>
</g>
</svg>
