<?xml version="1.0" encoding="utf-8"?>
<!-- Generator: Adobe Illustrator 18.0.0, SVG Export Plug-In . SVG Version: 6.00 Build 0)  -->
<!DOCTYPE svg PUBLIC "-//W3C//DTD SVG 1.1//EN" "http://www.w3.org/Graphics/SVG/1.1/DTD/svg11.dtd">
<svg version="1.1" id="Layer_1" xmlns="http://www.w3.org/2000/svg" xmlns:xlink="http://www.w3.org/1999/xlink" x="0px" y="0px"
	 viewBox="899.2 0.7 53 35" enable-background="new 899.2 0.7 53 35" xml:space="preserve">
<g id="Visa_1_">
	<path id="Background_7_" fill="#F3F4F4" d="M952.2,31.4c0,2.4-2,4.4-4.4,4.4h-44.2c-2.4,0-4.4-2-4.4-4.4V5.1c0-2.4,2-4.4,4.4-4.4
		h44.2c2.4,0,4.4,2,4.4,4.4V31.4z"/>
	<path id="Blue_stripe_1_" fill="#5565AF" d="M900.1,9.5V5.1c0-2.4,2-3.5,4.4-3.5h42.4c2.4,0,4.4,1.1,4.4,3.5v4.4"/>
	<path id="Yellow_stripe_1_" fill="#E6A124" d="M951.3,27v4.4c0,2.4-2,3.5-4.4,3.5h-42.4c-2.4,0-4.4-1.1-4.4-3.5V27"/>
	<g id="Visa_logo_1_">
		<path fill="#5565AF" d="M918.3,13.2h2.2l-5.2,10H913l-0.9-10h2l0.3,8h0L918.3,13.2z"/>
		<path fill="#5565AF" d="M919.5,23.2l2.2-10h2.1l-2.2,10H919.5z"/>
		<path fill="#5565AF" d="M930.3,20.3c0,1-0.3,1.7-1,2.3c-0.7,0.6-1.6,0.8-2.8,0.8c-1,0-1.8-0.2-2.5-0.6c0,0,0-1.9,0-1.9
			c0.8,0.4,1.8,0.8,2.7,0.8c0.6,0,1.3-0.4,1.4-1c0.3-1.1-1.2-1.6-1.8-2.3c-0.5-0.5-0.9-1-1-1.7c-0.4-1.5,0.7-2.9,2.1-3.4
			c0.9-0.3,1.8-0.2,2.7,0c0.1,0,1.3,0.4,1.3,0.5c0,0-0.8,1.6-0.8,1.6c-0.8-0.4-2.2-0.9-3-0.2c-0.3,0.4-0.4,1-0.2,1.4
			c0.2,0.4,0.6,0.6,0.9,0.8C929.5,18.1,930.3,19,930.3,20.3z"/>
		<path fill="#5565AF" d="M937,20.8h-3.3l-1.2,2.4h-2.2l5.3-10h2.6l1,10h-2L937,20.8z M934.6,19.1h2.3l-0.2-4.4L934.6,19.1z"/>
	</g>
	<path id="Glare_6_" opacity="4.000000e-02" fill="#FFFFFF" enable-background="new    " d="M950.9,2c0.8,0.8,1.3,1.9,1.3,3.1v13.1
		v13.1c0,1.2-0.5,2.3-1.3,3.1c-0.8,0.8-1.9,1.3-3.1,1.3h-22.1h-22.1c-1.2,0-2.3-0.5-3.1-1.3L950.9,2z"/>
</g>
</svg>
